<?xml version="1.0" encoding="utf-8"?>
<!-- Generator: Adobe Illustrator 20.1.0, SVG Export Plug-In . SVG Version: 6.00 Build 0)  -->
<svg version="1.1" id="Layer_1" xmlns="http://www.w3.org/2000/svg" xmlns:xlink="http://www.w3.org/1999/xlink" x="0px" y="0px"
	 viewBox="0 0 595.3 595.3" style="enable-background:new 0 0 595.3 595.3;" xml:space="preserve">
<style type="text/css">
	.st0{stroke:#000000;stroke-miterlimit:10;}
</style>
<g>
	<path class="st0" d="M549.2,222.7c-8.2,33.9-28.1,61.9-54.4,80.7c-13-24.1-30.8-45.5-52.7-62.7c13.5-7.8,24-20.9,28-37.3
		c7.7-31.8-11.7-63.8-43.5-71.5c-18-4.4-36.1,0-49.8,10.4c-6.8-26.9-19.5-51.9-37-73.1c30.7-18.6,68.5-25.5,106.1-16.4
		C521.3,71.2,567.5,147.2,549.2,222.7z"/>
	<path class="st0" d="M484.2,438.1C462,529.4,370,585.4,278.7,563.2c-88.4-21.5-143.7-108.4-127-196.7c0.7,0.2,1.3,0.3,2,0.5
		c27.7,6.7,55.4,6.9,81.5,1.4c-1,2.8-1.8,5.6-2.5,8.6c-11.6,47.6,17.6,95.6,65.3,107.2c47.6,11.6,95.6-17.6,107.2-65.3
		c5.1-20.9,2.3-41.9-6.5-59.9c-7.7-15.7-19.9-29.1-35.4-38l0,0c-5.1-2.9-10.5-5.4-16.2-7.3c-3.3-1.7-6.5-3.6-9.6-5.5
		c17.2-19.9,30.4-43.8,38-70.7c2,0.7,3.9,1.4,5.8,2.2c4.5,2.8,9.4,5,14.7,6.6l0,0c31.7,16.1,57,41.5,73.2,71.9
		c4.6,8.7,8.5,17.8,11.6,27.2C490.2,374.3,491.9,406.3,484.2,438.1z"/>
	<path class="st0" d="M292.6,310c-2.9,2.2-5.8,4.3-8.8,6.4c0,0,0,0,0,0c-6.3,2.7-12.3,6.2-17.8,10.3c0,0,0,0,0,0
		c-31.5,15.5-68.4,20.5-105.2,11.5c-0.3-0.1-0.7-0.2-1-0.3c-9.8-2.4-19.1-5.8-27.9-9.9C66,297.5,28.7,223.8,46.5,150.6
		C66.8,67.2,150.8,16.1,234.2,36.4c23,5.6,43.6,16.1,60.9,30.1c7.7,6.3,14.8,13.2,21.1,20.7c26.1,30.9,39.8,71.7,36,113.8
		c-27.1-4.6-54-3.5-79.4,2.6c-1.1,0.3-2.3,0.5-3.4,0.8c6-25.2-1.7-50.6-18.4-68.1c-9.4-9.9-21.8-17.4-36.1-20.9
		c-39.7-9.7-79.7,14.7-89.3,54.4c-9.4,38.4,13.2,77.2,50.6,88.3c1.2,0.4,2.5,0.7,3.7,1c15.8,3.8,31.6,2.3,45.5-3.4
		c6.1-2.5,11.9-5.8,17.1-9.9c0,0,0,0,0,0c2.7-1.4,5.4-2.6,8.2-3.8C259.2,267.6,273.5,291,292.6,310z"/>
</g>
</svg>
